<svg width="107" height="107" viewBox="0 0 107 107" fill="none" xmlns="http://www.w3.org/2000/svg">
<g clip-path="url(#clip0_1_2)">
<rect width="107" height="107" fill="white"/>
<path d="M4.5 88V18.1818H54.8182V33.4545H23.4545V45.4545H52.2273V60.7273H23.4545V72.7273H54.6818V88H4.5Z" fill="black"/>
<path d="M56.5909 88V70.5455H62.5455V73.8636H62.7273C63.0909 72.7727 63.7121 71.9091 64.5909 71.2727C65.4697 70.6364 66.5152 70.3182 67.7273 70.3182C68.9545 70.3182 70.0114 70.6439 70.8977 71.2955C71.7841 71.9394 72.3182 72.7955 72.5 73.8636H72.6818C72.9773 72.7955 73.6061 71.9394 74.5682 71.2955C75.5303 70.6439 76.6591 70.3182 77.9545 70.3182C79.6288 70.3182 80.9848 70.8561 82.0227 71.9318C83.0682 73.0076 83.5909 74.4394 83.5909 76.2273V88H77.3182V77.8182C77.3182 77.053 77.125 76.4545 76.7386 76.0227C76.3523 75.5833 75.8333 75.3636 75.1818 75.3636C74.5379 75.3636 74.0265 75.5833 73.6477 76.0227C73.2765 76.4545 73.0909 77.053 73.0909 77.8182V88H67.0909V77.8182C67.0909 77.053 66.8977 76.4545 66.5114 76.0227C66.125 75.5833 65.6061 75.3636 64.9545 75.3636C64.5227 75.3636 64.1515 75.4621 63.8409 75.6591C63.5303 75.8561 63.2879 76.1402 63.1136 76.5114C62.947 76.875 62.8636 77.3106 62.8636 77.8182V88H56.5909ZM86.6847 88V70.5455H92.9574V88H86.6847ZM89.821 68.7273C88.9725 68.7273 88.2453 68.447 87.6392 67.8864C87.0331 67.3258 86.7301 66.6515 86.7301 65.8636C86.7301 65.0758 87.0331 64.4015 87.6392 63.8409C88.2453 63.2803 88.9725 63 89.821 63C90.6771 63 91.4044 63.2803 92.0028 63.8409C92.6089 64.4015 92.9119 65.0758 92.9119 65.8636C92.9119 66.6515 92.6089 67.3258 92.0028 67.8864C91.4044 68.447 90.6771 68.7273 89.821 68.7273ZM102.426 64.7273V88H96.1534V64.7273H102.426Z" fill="black"/>
</g>
<defs>
<clipPath id="clip0_1_2">
<rect width="107" height="107" fill="white"/>
</clipPath>
</defs>
</svg>
